<svg xmlns="http://www.w3.org/2000/svg" width="16" height="16" viewBox="0 0 16 16" fill="none"> <path d="M1.36842 6.97314H1V7.34648V8.83981C1 10.6955 2.48453 12.1998 4.31579 12.1998H11.6842C13.5155 12.1998 15 10.6955 15 8.83981V7.34648V6.97314H14.6316H1.36842Z" stroke="#ff896b"/> <path d="M3.65281 13.4694C3.53072 13.6343 3.56372 13.8684 3.72649 13.9921C3.88927 14.1158 4.12019 14.0823 4.24228 13.9174L3.65281 13.4694ZM4.75807 11.9761L3.65281 13.4694L4.24228 13.9174L5.34754 12.4241L4.75807 11.9761Z" fill="#ff896b"/> <path d="M12.3471 13.4694C12.4692 13.6343 12.4362 13.8684 12.2734 13.9921C12.1106 14.1158 11.8797 14.0823 11.7576 13.9174L12.3471 13.4694ZM11.2418 11.9761L12.3471 13.4694L11.7576 13.9174L10.6523 12.4241L11.2418 11.9761Z" fill="#ff896b"/> <path d="M1.73633 6.97334V2.49333C1.73633 1.66859 2.39612 1 3.21001 1C4.02391 1 4.6837 1.66859 4.6837 2.49333V3.24" stroke="#ff896b" stroke-linejoin="round"/> <path d="M4.31543 3.23999H4.68385H5.05227" stroke="#ff896b" stroke-linecap="round" stroke-linejoin="round"/> </svg>