<svg xmlns="http://www.w3.org/2000/svg" width="16" height="16" viewBox="0 0 16 16" fill="none"> <path d="M1 9.68696V13.6667H2.64706V11.991H13.353V13.6667H15V9.68696C15 8.11375 13.7464 6.83838 12.2 6.83838H3.8C2.2536 6.83838 1 8.11375 1 9.68696Z" stroke="#ff896b" stroke-width="1.09091" stroke-linejoin="round"/> <path d="M1.34961 8.40938V2.71215C1.34961 2.31884 1.66301 2 2.04961 2H13.9496C14.3362 2 14.6496 2.31884 14.6496 2.71215V8.40938" stroke="#ff896b" stroke-width="1.09091" stroke-linejoin="round"/> <path d="M2.74902 6.98506V5.38578C2.74902 5.06782 2.9562 4.78838 3.25671 4.70103L4.11763 4.45079C4.82608 4.24485 5.57531 4.23215 6.29011 4.41395L7.4688 4.71374C7.78044 4.793 7.99905 5.07785 7.99905 5.40464V6.62899" stroke="#ff896b" stroke-width="1.09091" stroke-linejoin="round"/> <path d="M7.99902 6.98506V5.40464C7.99902 5.07785 8.21763 4.793 8.52927 4.71374L9.70793 4.41395C10.4227 4.23216 11.172 4.24485 11.8804 4.45078L12.7413 4.70103C13.0418 4.78838 13.249 5.06782 13.249 5.38578V6.98506" stroke="#ff896b" stroke-width="1.09091" stroke-linejoin="round"/> </svg>