<svg xmlns="http://www.w3.org/2000/svg" width="16" height="16" viewBox="0 0 16 16" fill="none"> <path d="M8.04707 6.7931C9.59347 6.7931 10.8471 5.49627 10.8471 3.89655C10.8471 2.29683 9.59347 1 8.04707 1C6.50067 1 5.24707 2.29683 5.24707 3.89655C5.24707 5.49627 6.50067 6.7931 8.04707 6.7931Z" stroke="#ff896b"/> <path d="M1.51017 13.8093L1.04874 13.7632L1 14.2921H1.51017V13.8093ZM14.4898 13.8093V14.2921H15L14.9512 13.7632L14.4898 13.8093ZM1.51017 14.2921H14.4898V13.3266H1.51017V14.2921ZM1.97161 13.8555C2.24606 10.8771 4.81784 8.49896 7.99999 8.49896V7.53345C4.38373 7.53345 1.37288 10.2457 1.04874 13.7632L1.97161 13.8555ZM7.99999 8.49896C11.1821 8.49896 13.754 10.8771 14.0284 13.8555L14.9512 13.7632C14.6271 10.2457 11.6162 7.53345 7.99999 7.53345V8.49896Z" fill="#ff896b"/> </svg>