<svg xmlns="http://www.w3.org/2000/svg" width="16" height="16" viewBox="0 0 16 16" fill="none"> <path d="M2.62988 6.9018L2.82852 6.11615C3.14495 4.86466 4.17106 4 5.33978 4H11.6591C12.8278 4 13.8539 4.86466 14.1704 6.11615L14.369 6.9018" stroke="#ff896b" stroke-linejoin="round"/> <path d="M2.51077 8.47884L2.83143 8.41297C2.80288 8.24097 2.66803 8.11612 2.51077 8.11612V8.47884ZM14.4892 8.47884V8.11612C14.3256 8.11612 14.1873 8.25098 14.1659 8.4314L14.4892 8.47884ZM2.51077 8.11612C2.18964 8.11612 1.95566 8.08166 1.81053 8.00657C1.74458 7.97248 1.71024 7.93657 1.69078 7.904C1.67211 7.87273 1.65218 7.8197 1.65218 7.72184H1C1 7.93758 1.04636 8.13599 1.14758 8.30546C1.24802 8.47362 1.38718 8.58766 1.53561 8.66441C1.81925 8.8111 2.17761 8.84157 2.51077 8.84157V8.11612ZM1.65218 7.72184C1.65218 7.62419 1.67213 7.56318 1.6954 7.52197C1.71937 7.47946 1.75897 7.43659 1.826 7.39705C1.96979 7.3121 2.20179 7.26451 2.51077 7.26451V6.53906C2.16547 6.53906 1.80512 6.58797 1.52014 6.7563C1.37279 6.84333 1.2389 6.96628 1.14297 7.1364C1.04635 7.30768 1 7.50601 1 7.72184H1.65218ZM2.1901 8.54471L2.55226 10.7266L3.19359 10.5949L2.83143 8.41297L2.1901 8.54471ZM3.51426 11.6172H13.5883V10.8918H3.51426V11.6172ZM14.4892 8.84157C14.8224 8.84157 15.1807 8.8111 15.4644 8.66441C15.6128 8.58766 15.752 8.47362 15.8524 8.30546C15.9536 8.13599 16 7.93758 16 7.72184H15.3478C15.3478 7.8197 15.3279 7.87273 15.3092 7.904C15.2897 7.93657 15.2554 7.97248 15.1894 8.00657C15.0443 8.08166 14.8103 8.11612 14.4892 8.11612V8.84157ZM16 7.72184C16 7.50601 15.9536 7.30768 15.857 7.1364C15.761 6.96628 15.6272 6.84333 15.4798 6.7563C15.1948 6.58797 14.8345 6.53906 14.4892 6.53906V7.26451C14.7982 7.26451 15.0302 7.3121 15.174 7.39705C15.241 7.43659 15.2806 7.47946 15.3046 7.52197C15.3279 7.56318 15.3478 7.62419 15.3478 7.72184H16ZM14.1659 8.4314L13.9116 10.5765L14.5582 10.6713L14.8125 8.52629L14.1659 8.4314ZM2.51077 7.26451C2.69431 7.26451 2.81741 7.3084 2.90729 7.36753C2.999 7.42781 3.07734 7.51798 3.15179 7.6453C3.22809 7.77588 3.29305 7.93243 3.36416 8.11851C3.4318 8.29559 3.50782 8.50757 3.59729 8.70417L4.17914 8.37648C4.10266 8.20847 4.04024 8.03334 3.96438 7.83479C3.89199 7.6453 3.80841 7.43782 3.69855 7.24986C3.58683 7.05877 3.4414 6.87601 3.23917 6.74302C3.03509 6.60883 2.79407 6.53906 2.51077 6.53906V7.26451ZM14.4892 6.53906C13.9127 6.53906 13.5178 6.77128 13.2478 7.14227C12.9986 7.48461 12.8743 7.92482 12.7737 8.27659L13.3952 8.49654C13.5033 8.11858 13.5962 7.81643 13.7546 7.5988C13.8921 7.40982 14.0953 7.26451 14.4892 7.26451V6.53906ZM4.39162 9.22011H12.494V8.49466H4.39162V9.22011ZM12.7737 8.27659C12.7372 8.40398 12.6287 8.49466 12.494 8.49466V9.22011C12.8981 9.22011 13.2682 8.94023 13.3952 8.49654L12.7737 8.27659ZM13.5883 11.6172C14.0792 11.6172 14.494 11.2126 14.5582 10.6713L13.9116 10.5765C13.8902 10.7569 13.752 10.8918 13.5883 10.8918V11.6172ZM3.59729 8.70417C3.75863 9.05869 4.08733 9.22011 4.39162 9.22011V8.49466C4.27802 8.49466 4.20655 8.43669 4.17914 8.37648L3.59729 8.70417ZM2.55226 10.7266C2.63791 11.2427 3.04248 11.6172 3.51426 11.6172V10.8918C3.357 10.8918 3.22214 10.7669 3.19359 10.5949L2.55226 10.7266Z" fill="#ff896b"/> <path d="M13.0654 11.2544L13.0724 12.9999" stroke="#ff896b" stroke-linecap="round"/> <path d="M3.93457 11.2544L3.94157 12.9999" stroke="#ff896b" stroke-linecap="round"/> </svg>