<svg xmlns="http://www.w3.org/2000/svg" width="17" height="15" viewBox="0 0 17 15" fill="none"> <path d="M16.3391 12.7392C16.3391 12.7392 14.9864 12.0058 13.3739 11.8567C10.118 11.5555 8.02039 14.1379 4.77598 13.8019C2.89613 13.6072 1.33911 12.5595 1.33911 12.5595" stroke="#ff896b" stroke-linecap="round" stroke-linejoin="round"/> <path d="M1.70483 1.08862L2.53516 2.8252M2.53516 2.8252L1.70483 4.66237M2.53516 2.8252L5.35401 4.66237" stroke="#ff896b" stroke-linecap="round" stroke-linejoin="round"/> <path d="M15.2952 1.08862L14.4648 2.8252M14.4648 2.8252L15.2952 4.66237M14.4648 2.8252L11.646 4.66237" stroke="#ff896b" stroke-linecap="round" stroke-linejoin="round"/> <path d="M5.27856 5.99634H1.98145C3.78822 9.40734 6.81515 10.8428 9.61308 10.3314M5.27856 5.99634C7.7701 8.362 9.43116 8.2865 11.5956 5.99634H14.8673C13.6352 8.50336 11.6871 9.95225 9.61308 10.3314M5.27856 5.99634C5.27856 7.83348 7.42307 10.9606 9.61308 10.3314" stroke="#ff896b" stroke-linecap="round" stroke-linejoin="round"/> </svg>