<svg xmlns="http://www.w3.org/2000/svg" width="21" height="17" viewBox="0 0 21 17" fill="none"> <path d="M7.33699 15.4999C6.42704 15.4999 5.88458 15.01 5.57768 14.4917C5.18753 13.8329 5.43275 13.0407 5.8267 12.3842L8.12066 8.56091C9.10518 6.91996 11.4833 6.91996 12.4678 8.56091L14.1706 11.399C14.9138 12.6375 15.4678 14.6539 14.1777 15.3036C13.9354 15.4256 13.6331 15.4999 13.2515 15.4999C12.4046 15.4999 11.5576 15.1226 10.9628 14.7462C10.5685 14.4967 10.0404 14.5176 9.66368 14.793C9.17066 15.1533 8.44089 15.4999 7.33699 15.4999Z" stroke="#ff896b" stroke-linejoin="round"/> <path d="M3.11233 10.8528C4.27894 10.8528 5.22467 9.90712 5.22467 8.74051C5.22467 7.5739 4.27894 6.62817 3.11233 6.62817C1.94572 6.62817 1 7.5739 1 8.74051C1 9.90712 1.94572 10.8528 3.11233 10.8528Z" stroke="#ff896b"/> <path d="M7.29427 5.70724C8.48449 5.74922 9.48198 4.85845 9.52222 3.71765C9.56246 2.57684 8.63021 1.618 7.44 1.57602C6.24978 1.53403 5.25229 2.4248 5.21205 3.56561C5.17181 4.70641 6.10405 5.66525 7.29427 5.70724Z" stroke="#ff896b"/> <path d="M13.2517 5.78326C14.4183 5.78326 15.3641 4.83754 15.3641 3.67093C15.3641 2.50432 14.4183 1.55859 13.2517 1.55859C12.0851 1.55859 11.1394 2.50432 11.1394 3.67093C11.1394 4.83754 12.0851 5.78326 13.2517 5.78326Z" stroke="#ff896b"/> <path d="M17.4763 10.8528C18.643 10.8528 19.5887 9.90712 19.5887 8.74051C19.5887 7.5739 18.643 6.62817 17.4763 6.62817C16.3097 6.62817 15.364 7.5739 15.364 8.74051C15.364 9.90712 16.3097 10.8528 17.4763 10.8528Z" stroke="#ff896b"/> </svg>