<svg xmlns="http://www.w3.org/2000/svg" width="16" height="16" viewBox="0 0 16 16" fill="none"> <path d="M13.7273 2H2.27273C1.56982 2 1 2.56982 1 3.27273V12.8182C1 13.5211 1.56982 14.0909 2.27273 14.0909H13.7273C14.4302 14.0909 15 13.5211 15 12.8182V3.27273C15 2.56982 14.4302 2 13.7273 2Z" stroke="#ff896b"/> <path d="M11.677 3.27271H4.32351C3.6206 3.27271 3.05078 3.84252 3.05078 4.54543V11.5454C3.05078 12.2483 3.6206 12.8182 4.32351 12.8182H11.677C12.38 12.8182 12.9498 12.2483 12.9498 11.5454V4.54543C12.9498 3.84252 12.38 3.27271 11.677 3.27271Z" stroke="#ff896b"/> <path d="M2.90918 14.7273H4.18191" stroke="#ff896b" stroke-linejoin="round"/> <path d="M11.8184 14.7273H13.0911" stroke="#ff896b" stroke-linejoin="round"/> </svg>