<svg xmlns="http://www.w3.org/2000/svg" width="14" height="15" viewBox="0 0 14 15" fill="none"> <g clip-path="url(#clip0_557_16074)"> <path d="M13.4165 13.922H1.34733C0.321111 13.922 0.305396 12.344 1.44336 12.344H10.827C11.906 12.344 12.0019 10.789 10.827 10.789H1.44336C0.368519 10.789 0.321124 9.36713 1.44336 9.36713L13.4165 9.28809" stroke="#ff896b" stroke-linecap="round" stroke-linejoin="round"/> <path d="M2.64172 1.07788C2.64172 1.07788 2.00801 1.71693 1.87911 2.4787C1.61884 4.01681 3.8505 5.00776 3.56013 6.54046C3.39189 7.42853 2.48649 8.16408 2.48649 8.16408" stroke="#ff896b" stroke-linecap="round" stroke-linejoin="round"/> <path d="M5.9569 1.07788C5.9569 1.07788 5.32319 1.71693 5.19429 2.4787C4.93402 4.01681 7.16568 5.00776 6.87531 6.54046C6.70707 7.42853 5.80168 8.16408 5.80168 8.16408" stroke="#ff896b" stroke-linecap="round" stroke-linejoin="round"/> <path d="M9.38098 1.07788C9.38098 1.07788 8.74727 1.71693 8.61836 2.4787C8.35809 4.01681 10.5898 5.00776 10.2994 6.54046C10.1311 7.42853 9.22575 8.16408 9.22575 8.16408" stroke="#ff896b" stroke-linecap="round" stroke-linejoin="round"/> </g> <defs> <clipPath id="clip0_557_16074"> <rect width="14" height="14" fill="white" transform="translate(0 0.5)"/> </clipPath> </defs> </svg>