<svg xmlns="http://www.w3.org/2000/svg" width="17" height="17" viewBox="0 0 17 17" fill="none"> <g clip-path="url(#clip0_557_16028)"> <path d="M16 1H1V16H16V1Z" stroke="#ff896b" stroke-linejoin="round"/> <path d="M14.0999 5H2.97754V14.5398H14.0999V5Z" stroke="#ff896b" stroke-linejoin="round"/> <path d="M5.00387 6.48828L5.23901 6.22903C5.10525 6.10771 4.90115 6.10807 4.76782 6.22986L5.00387 6.48828ZM4.76782 6.22986C4.59285 6.38969 4.43432 6.61705 4.31157 6.85596C4.18779 7.09688 4.08823 7.37317 4.04714 7.64272C4.00736 7.90371 4.01492 8.21014 4.16982 8.46451C4.341 8.74562 4.64024 8.88247 5.00382 8.88247V8.18247C4.82329 8.18247 4.78295 8.1255 4.76769 8.10044C4.73615 8.04864 4.71043 7.93657 4.73915 7.74821C4.76655 7.56841 4.83727 7.3645 4.9342 7.17586C5.03214 6.98522 5.14473 6.83366 5.23993 6.7467L4.76782 6.22986ZM5.00382 8.88247C5.36667 8.88247 5.66591 8.74672 5.83838 8.46738C5.99492 8.21384 6.00421 7.90785 5.96518 7.64652C5.88741 7.12577 5.58048 6.53873 5.23901 6.22903L4.76874 6.74753C4.97955 6.93874 5.21668 7.37379 5.27286 7.74992C5.3008 7.93701 5.27454 8.04816 5.24276 8.09963C5.22691 8.12531 5.18506 8.18247 5.00382 8.18247V8.88247Z" fill="#ff896b"/> <path d="M3.11188 3.72375C3.44981 3.72375 3.72375 3.44981 3.72375 3.11188C3.72375 2.77395 3.44981 2.5 3.11188 2.5C2.77395 2.5 2.5 2.77395 2.5 3.11188C2.5 3.44981 2.77395 3.72375 3.11188 3.72375Z" fill="#ff896b"/> <rect x="6.86816" y="2.5" width="3.26335" height="1.22375" rx="0.611877" fill="#ff896b"/> <path d="M5.88563 10.1479L6.21905 12.6152C6.30842 13.2765 6.873 13.7699 7.54037 13.7699H9.03192C9.6826 13.7699 10.2383 13.3003 10.3466 12.6587L10.7689 10.1588C10.8033 9.95537 10.6465 9.7699 10.4402 9.7699H6.21596C6.01413 9.7699 5.8586 9.94787 5.88563 10.1479Z" stroke="#ff896b" stroke-width="0.8" stroke-linejoin="round"/> <path d="M10.7973 10.4366H11.8343C11.8343 10.807 11.6862 12.1033 10.501 12.1033" stroke="#ff896b" stroke-width="0.8" stroke-linejoin="round"/> </g> <defs> <clipPath id="clip0_557_16028"> <rect width="17" height="17" fill="white"/> </clipPath> </defs> </svg>